<svg width="24" height="24" viewBox="0 0 24 24" fill="none" xmlns="http://www.w3.org/2000/svg">
<g id="9">
<g id="Group">
<path id="Vector" d="M13.79 8.68999C13.79 8.68999 12.77 7.78999 10.98 8.41999C9.32999 8.98999 9.40999 11.25 11.91 11.85" stroke="#19B7BE" stroke-width="1.2" stroke-miterlimit="10" stroke-linecap="round" stroke-linejoin="round"/>
<path id="Vector_2" d="M9.87 14.9699C9.87 14.9699 10.89 15.8699 12.68 15.2399C14.34 14.6599 14.26 12.3999 11.75 11.7999" stroke="#19B7BE" stroke-width="1.2" stroke-miterlimit="10" stroke-linecap="round" stroke-linejoin="round"/>
<path id="Vector_3" d="M12.01 8.19998V6.72998" stroke="#19B7BE" stroke-width="1.2" stroke-miterlimit="10" stroke-linecap="round" stroke-linejoin="round"/>
<path id="Vector_4" d="M12.01 16.93V15.46" stroke="#19B7BE" stroke-width="1.2" stroke-miterlimit="10" stroke-linecap="round" stroke-linejoin="round"/>
</g>
<path id="Vector_5" d="M11.83 21.06C16.9276 21.06 21.06 16.9276 21.06 11.83C21.06 6.73239 16.9276 2.59998 11.83 2.59998C6.73242 2.59998 2.60001 6.73239 2.60001 11.83C2.60001 16.9276 6.73242 21.06 11.83 21.06Z" stroke="#19B7BE" stroke-width="1.2" stroke-miterlimit="10" stroke-linecap="round" stroke-linejoin="round"/>
</g>
</svg>
