<svg width="16" height="16" viewBox="0 0 16 16" fill="none" xmlns="http://www.w3.org/2000/svg">
<g id="61">
<g id="Group 1708">
<path id="Vector" d="M12.4456 6.35924C13.1362 5.46895 12.9742 4.18744 12.084 3.49691C11.1937 2.80638 9.91216 2.96832 9.22163 3.8586C8.5311 4.74889 8.69303 6.0304 9.58332 6.72093C10.4736 7.41146 11.7551 7.24952 12.4456 6.35924Z" stroke="#19B7BE" stroke-width="1.2" stroke-miterlimit="10" stroke-linecap="round" stroke-linejoin="round"/>
<path id="Vector_2" d="M6.89319 12.5732C6.89319 10.3999 8.65985 8.63321 10.8332 8.63321C13.0065 8.63321 14.7732 10.3999 14.7732 12.5732" stroke="#19B7BE" stroke-width="1.2" stroke-miterlimit="10" stroke-linecap="round" stroke-linejoin="round"/>
<path id="Vector_3" d="M5.7426 6.39923C6.11481 5.70475 5.85357 4.84002 5.15909 4.46781C4.46461 4.09559 3.59988 4.35683 3.22767 5.05131C2.85545 5.74579 3.1167 6.61052 3.81117 6.98273C4.50565 7.35495 5.37038 7.09371 5.7426 6.39923Z" stroke="#19B7BE" stroke-width="1.2" stroke-miterlimit="10" stroke-linecap="round" stroke-linejoin="round"/>
<path id="Vector_4" d="M1.7334 11.9403C1.7334 10.4203 2.96673 9.18692 4.48673 9.18692C5.6134 9.18692 6.58007 9.86025 7.00673 10.8336" stroke="#19B7BE" stroke-width="1.2" stroke-miterlimit="10" stroke-linecap="round" stroke-linejoin="round"/>
</g>
</g>
</svg>
