<svg width="72" height="56" viewBox="0 0 72 56" fill="none" xmlns="http://www.w3.org/2000/svg">
<g id="Patern">
<g id="Group 1811">
<circle id="Ellipse 96" cx="4" cy="4" r="4" fill="#F2F2F2"/>
<circle id="Ellipse 97" cx="36" cy="4" r="4" fill="#F2F2F2"/>
<circle id="Ellipse 98" cx="20" cy="4" r="4" fill="#F2F2F2"/>
<circle id="Ellipse 99" cx="52" cy="4" r="4" fill="#F2F2F2"/>
<circle id="Ellipse 100" cx="68" cy="4" r="4" fill="#F2F2F2"/>
</g>
<g id="Group 1812">
<circle id="Ellipse 96_2" cx="4" cy="20" r="4" fill="#F2F2F2"/>
<circle id="Ellipse 97_2" cx="36" cy="20" r="4" fill="#F2F2F2"/>
<circle id="Ellipse 98_2" cx="20" cy="20" r="4" fill="#F2F2F2"/>
<circle id="Ellipse 99_2" cx="52" cy="20" r="4" fill="#F2F2F2"/>
<circle id="Ellipse 100_2" cx="68" cy="20" r="4" fill="#F2F2F2"/>
</g>
<g id="Group 1813">
<circle id="Ellipse 96_3" cx="4" cy="36" r="4" fill="#F2F2F2"/>
<circle id="Ellipse 97_3" cx="36" cy="36" r="4" fill="#F2F2F2"/>
<circle id="Ellipse 98_3" cx="20" cy="36" r="4" fill="#F2F2F2"/>
<circle id="Ellipse 99_3" cx="52" cy="36" r="4" fill="#F2F2F2"/>
<circle id="Ellipse 100_3" cx="68" cy="36" r="4" fill="#F2F2F2"/>
</g>
<g id="Group 1814">
<circle id="Ellipse 96_4" cx="4" cy="52" r="4" fill="#F2F2F2"/>
<circle id="Ellipse 97_4" cx="36" cy="52" r="4" fill="#F2F2F2"/>
<circle id="Ellipse 98_4" cx="20" cy="52" r="4" fill="#F2F2F2"/>
<circle id="Ellipse 99_4" cx="52" cy="52" r="4" fill="#F2F2F2"/>
<circle id="Ellipse 100_4" cx="68" cy="52" r="4" fill="#F2F2F2"/>
</g>
</g>
</svg>
