<svg width="24" height="24" viewBox="0 0 24 24" fill="none" xmlns="http://www.w3.org/2000/svg">
<g id="86">
<path id="Vector" d="M8.76799 3.71012L10.838 2.87012C11.648 2.54012 12.578 2.93012 12.908 3.75012L13.538 5.29012C13.868 6.10012 13.478 7.03012 12.658 7.37012L10.368 8.30012C10.608 9.45012 10.978 10.8001 11.558 12.2601C12.208 13.9101 12.958 15.2701 13.638 16.3601L15.928 15.4301C16.748 15.1001 17.678 15.4901 18.008 16.3101L18.638 17.8501C18.968 18.6701 18.578 19.6001 17.758 19.9301L15.688 20.7701L15.648 20.7901C13.418 21.6901 10.848 20.8201 9.68799 18.7201C8.90799 17.3101 8.13799 15.7301 7.42799 13.9601C6.78799 12.3601 6.28799 10.8301 5.90799 9.41012C5.27799 7.08012 6.49799 4.65012 8.72799 3.74012L8.76799 3.71012Z" stroke="#999999" stroke-width="1.2" stroke-miterlimit="10" stroke-linecap="round" stroke-linejoin="round"/>
</g>
</svg>
