<svg width="16" height="16" viewBox="0 0 16 16" fill="none" xmlns="http://www.w3.org/2000/svg">
<g id="47">
<g id="Group 1701">
<g id="Group">
<path id="Vector" d="M7.86655 12.7866C8.24947 12.7866 8.55988 12.4762 8.55988 12.0933C8.55988 11.7103 8.24947 11.3999 7.86655 11.3999C7.48363 11.3999 7.17322 11.7103 7.17322 12.0933C7.17322 12.4762 7.48363 12.7866 7.86655 12.7866Z" fill="#19B7BE"/>
</g>
<path id="Vector_2" d="M10.0066 10.2799C9.49323 9.66659 8.73323 9.27325 7.86656 9.27325C6.9999 9.27325 6.2399 9.66659 5.72656 10.2799" stroke="#19B7BE" stroke-width="1.2" stroke-miterlimit="10" stroke-linecap="round" stroke-linejoin="round"/>
<path id="Vector_3" d="M11.6401 8.13325C10.7334 7.06658 9.38011 6.37991 7.86678 6.37991C6.35344 6.37991 5.00011 7.05991 4.09344 8.13325" stroke="#19B7BE" stroke-width="1.2" stroke-miterlimit="10" stroke-linecap="round" stroke-linejoin="round"/>
<path id="Vector_4" d="M13.3334 6.27328C12.0201 4.71994 10.0601 3.73328 7.86675 3.73328C5.67342 3.73328 3.71342 4.71994 2.40009 6.27328" stroke="#19B7BE" stroke-width="1.2" stroke-miterlimit="10" stroke-linecap="round" stroke-linejoin="round"/>
</g>
</g>
</svg>
